HIERARCHY
ROOT Hips
{
	OFFSET	0.00	0.00	0.00
	CHANNELS 6 Xposition Yposition Zposition Zrotation Xrotation Yrotation
	JOINT LeftUpperLeg
	{
		OFFSET	 0.100000	-0.066564	-0.000554
		CHANNELS 3 Zrotation Xrotation Yrotation
		JOINT LeftLowerLeg
		{
			OFFSET	 0.002447	-0.463436	-0.005172
			CHANNELS 3 Zrotation Xrotation Yrotation
			JOINT LeftFoot
			{
				OFFSET	-0.002447	-0.420480	-0.020576
				CHANNELS 3 Zrotation Xrotation Yrotation
				JOINT LeftToes
				{
					OFFSET	 0.003734	-0.104922	 0.126407
					CHANNELS 3 Zrotation Xrotation Yrotation
					End Site
					{
						OFFSET	 0.000000	 0.000000	 0.059955
					}
				}
			}
		}
	}
	JOINT RightUpperLeg
	{
		OFFSET	-0.100000	-0.066564	-0.000554
		CHANNELS 3 Zrotation Xrotation Yrotation
		JOINT RightLowerLeg
		{
			OFFSET	-0.002447	-0.463436	-0.005146
			CHANNELS 3 Zrotation Xrotation Yrotation
			JOINT RightFoot
			{
				OFFSET	 0.002447	-0.420479	-0.020602
				CHANNELS 3 Zrotation Xrotation Yrotation
				JOINT RightToes
				{
					OFFSET	-0.003734	-0.104922	 0.126407
					CHANNELS 3 Zrotation Xrotation Yrotation
					End Site
					{
						OFFSET	-0.000000	 0.000000	 0.059955
					}
				}
			}
		}
	}
	JOINT Spine
	{
		OFFSET	 0.000000	 0.099235	-0.012273
		CHANNELS 3 Zrotation Xrotation Yrotation
		JOINT Chest
		{
			OFFSET	-0.000001	 0.116455	-0.014223
			CHANNELS 3 Zrotation Xrotation Yrotation
			JOINT UpperChest
			{
				OFFSET	 0.000001	 0.133602	-0.016265
				CHANNELS 3 Zrotation Xrotation Yrotation
				JOINT LeftShoulder
				{
					OFFSET	 0.061058	 0.091105	 0.007056
					CHANNELS 3 Zrotation Xrotation Yrotation
					JOINT LeftUpperArm
					{
						OFFSET	 0.133942	-0.002659	-0.026009
						CHANNELS 3 Zrotation Xrotation Yrotation
						JOINT LeftLowerArm
						{
							OFFSET	 0.274047	 0.000000	 0.000000
							CHANNELS 3 Zrotation Xrotation Yrotation
							JOINT LeftHand
							{
								OFFSET	 0.276145	 0.000000	 0.000000
								CHANNELS 3 Zrotation Xrotation Yrotation
								End Site
								{
									OFFSET	 0.165687	 0.000000	 0.000000
								}
							}
						}
					}
				}
				JOINT Neck
				{
					OFFSET	 0.000000	 0.150325	 0.007929
					CHANNELS 3 Zrotation Xrotation Yrotation
					JOINT Head
					{
						OFFSET	 0.000000	 0.103218	 0.031424
						CHANNELS 3 Zrotation Xrotation Yrotation
						End Site
						{
							OFFSET	 0.000000	 0.061931	 0.018855
						}
					}
				}
				JOINT RightShoulder
				{
					OFFSET	-0.061057	 0.091105	 0.007056
					CHANNELS 3 Zrotation Xrotation Yrotation
					JOINT RightUpperArm
					{
						OFFSET	-0.133943	-0.002660	-0.026009
						CHANNELS 3 Zrotation Xrotation Yrotation
						JOINT RightLowerArm
						{
							OFFSET	-0.274047	 0.000000	 0.000000
							CHANNELS 3 Zrotation Xrotation Yrotation
							JOINT RightHand
							{
								OFFSET	-0.276145	 0.000000	 0.000000
								CHANNELS 3 Zrotation Xrotation Yrotation
								End Site
								{
									OFFSET	-0.165687	 0.000000	 0.000000
								}
							}
						}
					}
				}
			}
		}
	}
}
MOTION
Frames:    9
Frame Time: 0.03333334
-0.577450	 1.026930	 0.232470	-0.249504	 0.666923	 4.444216	 17.792980	-11.059760	 25.959790	-0.385709	 34.040350	 0.117356	-10.081350	-8.132303	-5.558146	 0.000524	-6.316711	 0.077570	-5.600292	-1.727599	-19.949320	-0.032598	 24.030900	 0.025832	 2.108249	-21.021860	-15.977110	-0.000548	 0.868919	-0.000520	 3.124333	 0.830120	 0.230982	-0.000000	 0.000000	 0.000000	 6.258125	 1.674722	 0.417223	-2.755090	 4.659973	 9.838705	-74.659610	 2.551123	-13.237260	-23.097890	 26.659990	-52.225440	 26.318760	 30.749170	-25.732390	 3.832070	 2.639911	-16.954200	 3.456436	 2.695675	-17.312730	 5.185420	 1.283754	-4.627316	 76.684840	 2.644552	 21.735470	 4.987933	-2.070099	 17.316420	-25.019510	 2.907213	-11.551760
-0.565240	 1.024270	 0.233470	-1.084342	 0.144584	 5.570693	 17.485720	-10.558700	 25.294400	-0.378439	 33.865100	 0.114225	-9.597370	-11.461070	-5.195040	 0.000170	-3.826835	 0.056985	-5.324119	-1.156640	-19.663760	-0.014524	 24.313580	 0.021472	 2.581639	-21.215360	-17.090940	-0.000176	 0.956679	-0.000125	 3.454489	 0.818350	 0.308379	-0.000000	 0.000000	 0.000000	 6.919413	 1.656511	 0.568147	-2.514297	 4.702635	 9.858278	-74.629050	 2.244231	-12.769410	-22.425460	 28.197930	-52.499860	 26.092600	 33.510530	-26.081370	 4.065201	 2.673447	-17.791860	 3.411300	 2.685486	-17.962790	 5.806142	 1.527929	-4.610194	 75.848110	 1.617265	 23.852610	 4.968659	-2.542448	 17.721870	-25.645620	 2.474741	-11.846400
-0.555720	 1.022610	 0.233630	-1.791359	-0.128631	 6.312514	 17.385960	-10.387540	 25.332370	-0.306700	 33.858590	 0.093229	-8.355179	-13.705530	-5.001720	 0.000225	-2.323707	 0.119552	-5.094575	-0.773941	-19.630480	 0.039688	 24.281480	 0.011300	 3.035955	-21.230650	-17.605580	-0.000150	 1.046003	-0.000405	 3.687045	 0.781241	 0.413172	-0.000000	 0.000000	 0.000000	 7.385548	 1.589635	 0.774883	-2.582967	 4.576237	 9.871992	-74.396930	 2.035467	-12.416380	-22.148060	 29.115760	-52.385590	 25.966960	 35.307350	-25.901350	 3.861058	 2.641375	-18.243700	 3.407869	 2.698627	-18.468910	 5.936569	 1.487712	-4.457487	 75.222340	 0.714223	 25.714720	 4.698825	-2.480092	 17.966810	-25.801200	 2.370103	-11.559140
-0.545330	 1.021320	 0.233320	-2.239209	-0.144891	 6.642730	 17.112690	-10.446190	 25.615160	-0.311663	 34.065270	 0.095265	-6.727465	-15.451980	-4.796440	-0.000685	-1.454403	 0.198840	-5.266043	-0.621884	-19.948460	-0.027273	 24.105780	 0.024818	 3.610993	-21.020350	-17.349240	-0.000649	 1.125867	-0.000178	 3.811022	 0.689795	 0.567971	-0.000000	 0.000000	 0.000000	 7.632875	 1.420451	 1.091628	-2.685527	 4.289658	 10.093300	-74.023200	 1.946886	-12.121280	-22.148680	 29.697250	-51.675060	 26.040580	 36.903690	-25.499070	 3.667556	 2.559140	-18.481360	 3.437922	 2.711254	-18.815040	 6.000751	 1.415992	-4.039677	 74.499110	-0.281614	 27.654730	 4.684577	-2.571156	 18.690920	-26.398680	 2.391026	-11.176770
-0.534300	 1.020730	 0.233320	-2.602179	-0.220991	 6.689267	 16.792810	-10.340150	 25.842120	-0.337388	 34.275110	 0.103313	-5.789900	-16.882610	-4.664359	-0.000482	-0.599911	 0.202477	-5.587089	-0.300107	-20.234740	-0.028385	 23.689960	 0.026038	 4.201616	-20.579680	-16.847940	-0.000595	 1.153641	 0.000233	 3.915406	 0.611538	 0.743298	-0.000000	 0.000000	 0.000000	 7.842316	 1.276587	 1.445253	-2.720869	 4.188446	 10.322340	-73.392360	 1.898643	-11.910070	-22.224950	 30.156490	-50.746820	 26.843200	 38.593900	-25.185880	 3.704405	 2.617202	-18.697890	 3.514266	 2.743952	-19.063870	 5.991007	 1.421294	-3.777885	 74.072690	-1.009220	 29.253530	 5.015910	-3.635837	 20.902280	-29.357310	 1.781860	-10.269410
-0.522280	 1.020770	 0.233100	-2.577793	-0.166961	 6.495271	 16.073890	-10.181290	 26.268400	-0.356763	 34.322070	 0.109410	-5.372451	-17.755420	-4.721527	-0.000129	-0.216866	 0.174369	-6.423438	 0.020177	-20.564480	 0.063557	 23.054480	 0.007608	 4.819328	-19.947800	-16.147190	-0.000132	 1.188589	-0.000960	 3.876905	 0.540697	 0.913204	-0.000000	 0.000000	 0.000000	 7.761733	 1.141338	 1.789057	-3.085663	 4.032977	 10.442490	-72.487920	 1.787337	-11.775210	-22.273040	 30.412530	-49.724400	 27.714850	 40.073650	-25.127910	 3.454500	 2.657239	-18.839790	 3.554695	 2.769417	-19.189820	 5.493109	 1.338989	-3.690337	 74.274550	-1.711915	 30.691710	 5.281971	-3.820268	 23.160810	-34.913760	 0.099018	-6.525703
-0.522280	 1.020770	 0.233100	-2.577793	-0.166961	 6.495271	 16.073890	-10.181290	 26.268400	-0.356763	 34.322070	 0.109410	-5.372451	-17.755420	-4.721527	-0.000129	-0.216866	 0.174369	-6.423438	 0.020177	-20.564480	 0.063557	 23.054480	 0.007608	 4.819328	-19.947800	-16.147190	-0.000132	 1.188589	-0.000960	 3.876905	 0.540697	 0.913204	-0.000000	 0.000000	 0.000000	 7.761733	 1.141338	 1.789057	-3.085663	 4.032977	 10.442490	-72.487920	 1.787337	-11.775210	-22.273040	 30.412530	-49.724400	 27.714850	 40.073650	-25.127910	 3.454500	 2.657239	-18.839790	 3.554695	 2.769417	-19.189820	 5.493109	 1.338989	-3.690337	 74.274550	-1.711915	 30.691710	 5.281971	-3.820268	 23.160810	-34.913760	 0.099018	-6.525703
-0.490590	 1.022430	 0.232070	-2.071002	 0.223616	 5.398442	 13.554250	-9.717684	 27.822520	-0.267411	 33.891270	 0.082039	-3.510033	-19.067760	-4.447503	-0.000605	 0.024855	 0.173305	-9.292521	 1.066812	-24.020210	 0.025554	 20.393940	 0.016735	 6.910957	-17.144840	-11.233540	-0.000036	 1.155539	-0.000116	 3.709563	 0.339032	 1.014837	-0.000000	 0.000000	 0.000000	 7.426144	 0.743706	 2.007946	-3.350188	 3.731062	 10.174730	-70.564700	 1.097325	-11.752960	-20.971400	 30.947910	-46.996290	 30.340180	 44.651670	-25.940440	 3.026666	 2.807110	-18.826660	 3.001325	 3.029525	-18.768940	 4.279351	 0.873139	-3.822838	 75.634770	-2.809954	 33.010850	 4.641732	-1.680242	 29.948000	-42.545750	-5.647311	 6.076646
-0.477130	 1.023380	 0.231750	-2.089576	 0.436135	 4.764526	 12.608870	-9.488327	 28.170190	-0.290975	 33.465970	 0.087159	-2.749288	-19.712630	-4.035282	 0.000308	 0.366448	 0.370262	-10.168060	 1.747328	-26.146700	-0.014057	 18.519290	 0.020867	 7.806751	-15.375440	-8.477436	-0.000029	 1.131453	-0.000240	 3.662111	 0.253618	 1.032167	-0.000000	 0.000000	 0.000000	 7.335589	 0.574545	 2.047898	-3.709511	 3.810523	 10.150080	-69.532570	 1.248472	-12.480410	-20.181140	 30.740670	-45.430200	 31.684740	 45.950520	-26.744540	 2.835939	 3.078085	-18.458490	 2.935596	 3.241867	-18.505560	 3.609679	 0.515540	-3.762260	 75.475300	-2.677853	 32.957140	 5.592802	-1.666248	 34.394090	-43.194750	-6.095957	 10.646160
